# Blender 4.2.3 LTS
# www.blender.org
mtllib FenetrePetite.mtl
o Cube
v -0.727713 -1.000000 0.016373
v -0.742565 -1.000000 0.016046
v -0.742565 1.000000 0.016046
v -0.727713 1.000000 0.016373
v -0.742565 -1.000000 -0.016046
v -0.727713 -1.000000 -0.016373
v -0.727713 1.000000 -0.016373
v -0.742565 1.000000 -0.016046
v 0.742565 -1.000000 0.016046
v 0.727713 -1.000000 0.016373
v 0.727713 1.000000 0.016373
v 0.742565 1.000000 0.016046
v 0.727713 -1.000000 -0.016373
v 0.742565 -1.000000 -0.016046
v 0.742565 1.000000 -0.016046
v 0.727713 1.000000 -0.016373
v 0.232670 -1.000000 -0.016373
v 0.262373 -1.000000 -0.016373
v 0.247522 -1.000000 -0.016046
v -0.262373 -1.000000 -0.016373
v -0.232670 -1.000000 -0.016373
v -0.247522 -1.000000 -0.016046
v -0.232670 1.000000 -0.016373
v -0.262373 1.000000 -0.016373
v -0.247522 1.000000 -0.016046
v 0.262373 1.000000 -0.016373
v 0.232670 1.000000 -0.016373
v 0.247522 1.000000 -0.016046
v -0.232670 -1.000000 0.016373
v -0.262373 -1.000000 0.016373
v -0.247522 -1.000000 0.016046
v 0.262373 -1.000000 0.016373
v 0.232670 -1.000000 0.016373
v 0.247522 -1.000000 0.016046
v 0.232670 1.000000 0.016373
v 0.262373 1.000000 0.016373
v 0.247522 1.000000 0.016046
v -0.262373 1.000000 0.016373
v -0.232670 1.000000 0.016373
v -0.247522 1.000000 0.016046
v -0.727713 1.000000 -0.006373
v -0.727713 -1.000000 -0.006373
v 0.727713 -1.000000 -0.006373
v 0.727713 1.000000 -0.006373
v -0.232670 1.000000 -0.006373
v -0.232670 -1.000000 -0.006373
v -0.262373 -1.000000 -0.006373
v -0.262373 1.000000 -0.006373
v 0.262373 1.000000 -0.006373
v 0.262373 -1.000000 -0.006373
v 0.232670 -1.000000 -0.006373
v 0.232670 1.000000 -0.006373
v -0.727713 -1.000000 0.006373
v -0.727713 1.000000 0.006373
v 0.727713 1.000000 0.006373
v 0.727713 -1.000000 0.006373
v 0.232670 1.000000 0.006373
v 0.232670 -1.000000 0.006373
v 0.262373 -1.000000 0.006373
v 0.262373 1.000000 0.006373
v -0.262373 1.000000 0.006373
v -0.262373 -1.000000 0.006373
v -0.232670 -1.000000 0.006373
v -0.232670 1.000000 0.006373
vn -1.0000 -0.0000 -0.0000
vn -0.0000 -1.0000 -0.0000
vn -0.0000 1.0000 -0.0000
vn 1.0000 -0.0000 -0.0000
vn -0.0220 -0.0000 0.9998
vn -0.0220 -0.0000 -0.9998
vn 0.0220 -0.0000 -0.9998
vn 0.0220 -0.0000 0.9998
vn -0.0000 -0.0000 1.0000
vn -0.0000 -0.0000 -1.0000
vt 0.375000 0.752500
vt 0.625000 0.752500
vt 0.705833 0.500000
vt 0.627500 0.500000
vt 0.375000 0.835833
vt 0.625000 0.835833
vt 0.791667 0.502500
vt 0.794167 0.500000
vt 0.872500 0.500000
vt 0.875000 0.502500
vt 0.875000 0.747500
vt 0.872500 0.750000
vt 0.794167 0.750000
vt 0.791667 0.747500
vt 0.375000 0.502500
vt 0.625000 0.502500
vt 0.625000 0.747500
vt 0.375000 0.747500
vt 0.789167 0.500000
vt 0.710833 0.500000
vt 0.710833 0.750000
vt 0.789167 0.750000
vt 0.375000 0.002500
vt 0.625000 0.002500
vt 0.625000 0.247500
vt 0.375000 0.247500
vt 0.708333 0.502500
vt 0.708333 0.747500
vt 0.705833 0.750000
vt 0.627500 0.750000
vt 0.291667 0.502500
vt 0.294167 0.500000
vt 0.372500 0.500000
vt 0.372500 0.750000
vt 0.294167 0.750000
vt 0.291667 0.747500
vt 0.208333 0.502500
vt 0.210833 0.500000
vt 0.289167 0.500000
vt 0.289167 0.750000
vt 0.210833 0.750000
vt 0.208333 0.747500
vt 0.291667 0.500000
vt 0.205833 0.500000
vt 0.208333 0.500000
vt 0.791667 0.500000
vt 0.794167 0.500000
vt 0.708333 0.500000
vt 0.208333 0.750000
vt 0.205833 0.750000
vt 0.291667 0.750000
vt 0.708333 0.750000
vt 0.791667 0.750000
vt 0.375000 0.000000
vt 0.625000 0.000000
vt 0.625000 0.252500
vt 0.375000 0.252500
vt 0.375000 0.497500
vt 0.625000 0.497500
vt 0.375000 0.830833
vt 0.625000 0.830833
vt 0.625000 0.919167
vt 0.375000 0.919167
vt 0.375000 0.914167
vt 0.625000 0.914167
vt 0.625000 0.335833
vt 0.375000 0.335833
vt 0.375000 0.330833
vt 0.625000 0.330833
vt 0.625000 0.419167
vt 0.375000 0.419167
vt 0.375000 0.414167
vt 0.625000 0.414167
vt 0.125000 0.502500
vt 0.127500 0.500000
vt 0.127500 0.750000
vt 0.125000 0.747500
vt 0.625000 0.997500
vt 0.375000 0.997500
s 0
usemtl Material.001
f 46/67/10 45/66/10 52/73/10 51/72/10
f 42/57/10 41/56/10 48/69/10 47/68/10
f 50/71/10 49/70/10 44/59/10 43/58/10
f 62/63/9 61/62/9 54/78/9 53/79/9
f 56/1/9 55/2/9 60/61/9 59/60/9
f 58/5/9 57/6/9 64/65/9 63/64/9
usemtl Material.002
f 10/1/1 11/2/1 55/2/1 56/1/1
f 26/3/2 16/4/2 44/4/2 49/3/2
f 33/5/1 35/6/1 57/6/1 58/5/1
f 25/7/3 24/8/3 7/9/3 8/10/3 3/11/3 4/12/3 38/13/3 40/14/3
f 14/15/4 15/16/4 12/17/4 9/18/4
f 7/9/2 24/8/2 48/8/2 41/9/2
f 23/19/2 27/20/2 52/20/2 45/19/2
f 35/21/2 39/22/2 64/22/2 57/21/2
f 2/23/1 3/24/1 8/25/1 5/26/1
f 28/27/3 27/20/3 23/19/3 25/7/3 40/14/3 39/22/3 35/21/3 37/28/3
f 15/16/3 16/4/3 26/3/3 28/27/3 37/28/3 36/29/3 11/30/3 12/17/3
f 19/31/2 18/32/2 13/33/2 14/15/2 9/18/2 10/34/2 32/35/2 34/36/2
f 22/37/2 21/38/2 17/39/2 19/31/2 34/36/2 33/40/2 29/41/2 31/42/2
f 17/39/2 18/43/2 19/31/2
f 20/44/2 21/45/2 22/37/2
f 23/46/3 24/47/3 25/7/3
f 26/48/3 27/20/3 28/27/3
f 29/49/2 30/50/2 31/42/2
f 32/51/2 33/40/2 34/36/2
f 35/21/3 36/52/3 37/28/3
f 38/13/3 39/53/3 40/14/3
f 1/54/5 4/55/5 3/24/5 2/23/5
f 7/56/6 6/57/6 5/26/6 8/25/6
f 15/16/7 14/15/7 13/58/7 16/59/7
f 11/2/8 10/1/8 9/18/8 12/17/8
f 35/6/9 33/5/9 32/60/9 36/61/9
f 38/62/9 30/63/9 29/64/9 39/65/9
f 23/66/10 21/67/10 20/68/10 24/69/10
f 26/70/10 18/71/10 17/72/10 27/73/10
f 5/74/2 6/75/2 20/44/2 22/37/2 31/42/2 30/50/2 1/76/2 2/77/2
f 24/69/1 20/68/1 47/68/1 48/69/1
f 16/59/1 13/58/1 43/58/1 44/59/1
f 20/44/3 6/75/3 42/75/3 47/44/3
f 6/57/4 7/56/4 41/56/4 42/57/4
f 18/71/4 26/70/4 49/70/4 50/71/4
f 13/33/3 18/32/3 50/32/3 43/33/3
f 17/39/3 21/38/3 46/38/3 51/39/3
f 27/73/1 17/72/1 51/72/1 52/73/1
f 21/67/4 23/66/4 45/66/4 46/67/4
f 11/30/2 36/29/2 60/29/2 55/30/2
f 1/76/3 30/50/3 62/50/3 53/76/3
f 36/61/4 32/60/4 59/60/4 60/61/4
f 30/63/1 38/62/1 61/62/1 62/63/1
f 32/35/3 10/34/3 56/34/3 59/35/3
f 4/55/4 1/54/4 53/54/4 54/55/4
f 29/41/3 33/40/3 58/40/3 63/41/3
f 38/13/2 4/12/2 54/12/2 61/13/2
f 39/65/4 29/64/4 63/64/4 64/65/4
