# Blender 4.2.3 LTS
# www.blender.org
mtllib FenetreGrand.mtl
o Cube.001
v -0.017629 -1.084170 -1.478088
v -0.017944 -1.084170 -1.452140
v -0.017944 1.084170 -1.452140
v -0.017629 1.084170 -1.478088
v -0.017943 -1.084170 1.452140
v -0.017628 -1.084170 1.478088
v -0.017628 1.084170 1.478088
v -0.017943 1.084170 1.452140
v 0.017943 -1.084170 -1.452140
v 0.017628 -1.084170 -1.478088
v 0.017628 1.084170 -1.478088
v 0.017943 1.084170 -1.452140
v 0.017629 -1.084170 1.478088
v 0.017944 -1.084170 1.452140
v 0.017944 1.084170 1.452140
v 0.017629 1.084170 1.478088
v -0.017943 -1.084170 0.860904
v -0.017943 -1.084170 0.912802
v -0.017628 -1.084170 0.886853
v -0.017943 -1.084170 0.269669
v -0.017943 -1.084170 0.321567
v -0.017628 -1.084170 0.295618
v -0.017943 -1.084170 -0.321567
v -0.017943 -1.084170 -0.269669
v -0.017628 -1.084170 -0.295618
v -0.017944 -1.084170 -0.912802
v -0.017944 -1.084170 -0.860904
v -0.017629 -1.084170 -0.886853
v -0.017944 1.084170 -0.860904
v -0.017944 1.084170 -0.912802
v -0.017629 1.084170 -0.886853
v -0.017943 1.084170 -0.269669
v -0.017943 1.084170 -0.321567
v -0.017628 1.084170 -0.295618
v -0.017943 1.084170 0.321567
v -0.017943 1.084170 0.269669
v -0.017628 1.084170 0.295618
v -0.017943 1.084170 0.912802
v -0.017943 1.084170 0.860904
v -0.017628 1.084170 0.886853
v 0.017943 -1.084170 -0.860904
v 0.017943 -1.084170 -0.912802
v 0.017628 -1.084170 -0.886853
v 0.017943 -1.084170 -0.269669
v 0.017943 -1.084170 -0.321567
v 0.017628 -1.084170 -0.295618
v 0.017943 -1.084170 0.321567
v 0.017943 -1.084170 0.269669
v 0.017628 -1.084170 0.295618
v 0.017944 -1.084170 0.912802
v 0.017944 -1.084170 0.860904
v 0.017629 -1.084170 0.886853
v 0.017944 1.084170 0.860904
v 0.017944 1.084170 0.912802
v 0.017629 1.084170 0.886853
v 0.017943 1.084170 0.269669
v 0.017943 1.084170 0.321567
v 0.017628 1.084170 0.295618
v 0.017943 1.084170 -0.321567
v 0.017943 1.084170 -0.269669
v 0.017628 1.084170 -0.295618
v 0.017943 1.084170 -0.912802
v 0.017943 1.084170 -0.860904
v 0.017628 1.084170 -0.886853
v -0.037943 -1.084170 0.860904
v -0.037943 -1.084170 0.912802
v -0.037943 -1.084170 0.269669
v -0.037943 -1.084170 0.321567
v -0.037943 -1.084170 -0.321567
v -0.037943 -1.084170 -0.269669
v -0.037944 -1.084170 -0.912802
v -0.037944 -1.084170 -0.860904
v -0.037944 1.084170 -0.860904
v -0.037944 1.084170 -0.912802
v -0.037943 1.084170 -0.269669
v -0.037943 1.084170 -0.321567
v -0.037943 1.084170 0.321567
v -0.037943 1.084170 0.269669
v -0.037943 1.084170 0.912802
v -0.037943 1.084170 0.860904
v -0.037944 -1.084170 -1.452140
v -0.037629 -1.084170 -1.478088
v -0.037629 1.084170 -1.478088
v -0.037944 1.084170 -1.452140
v -0.037943 1.084170 1.452140
v -0.037628 1.084170 1.478088
v -0.037628 -1.084170 1.478088
v -0.037943 -1.084170 1.452140
v 0.037943 -1.084170 -0.860904
v 0.037943 -1.084170 -0.912802
v 0.037943 -1.084170 -0.269669
v 0.037943 -1.084170 -0.321567
v 0.037943 -1.084170 0.321567
v 0.037943 -1.084170 0.269669
v 0.037944 -1.084170 0.912802
v 0.037944 -1.084170 0.860904
v 0.037944 1.084170 0.860904
v 0.037944 1.084170 0.912802
v 0.037943 1.084170 0.269669
v 0.037943 1.084170 0.321567
v 0.037943 1.084170 -0.321567
v 0.037943 1.084170 -0.269669
v 0.037943 1.084170 -0.912802
v 0.037943 1.084170 -0.860904
v 0.037629 1.084170 1.478088
v 0.037944 1.084170 1.452140
v 0.037944 -1.084170 1.452140
v 0.037629 -1.084170 1.478088
v 0.037943 1.084170 -1.452140
v 0.037628 1.084170 -1.478088
v 0.037628 -1.084170 -1.478088
v 0.037943 -1.084170 -1.452140
vn -0.0000 1.0000 -0.0000
vn -0.0000 -1.0000 -0.0000
vn 1.0000 -0.0000 -0.0000
vn -0.0000 -0.0000 1.0000
vn -1.0000 -0.0000 -0.0000
vn -0.0000 -0.0000 -1.0000
vn -0.9999 -0.0000 -0.0121
vn -0.9999 -0.0000 0.0121
vn 0.9999 -0.0000 0.0121
vn 0.9999 -0.0000 -0.0121
vt 0.625000 0.502194
vt 0.627194 0.500000
vt 0.872805 0.500000
vt 0.875000 0.502194
vt 0.875000 0.547806
vt 0.872805 0.550000
vt 0.627195 0.550000
vt 0.625000 0.547806
vt 0.125000 0.502194
vt 0.127194 0.500000
vt 0.372806 0.500000
vt 0.375000 0.502194
vt 0.375000 0.547806
vt 0.372806 0.550000
vt 0.127194 0.550000
vt 0.125000 0.547806
vt 0.375000 0.502194
vt 0.375000 0.547806
vt 0.125000 0.702194
vt 0.127194 0.700000
vt 0.372806 0.700000
vt 0.375000 0.702194
vt 0.375000 0.747806
vt 0.372806 0.750000
vt 0.127194 0.750000
vt 0.125000 0.747805
vt 0.625000 0.702194
vt 0.627194 0.700000
vt 0.872805 0.700000
vt 0.875000 0.702194
vt 0.875000 0.747806
vt 0.872805 0.750000
vt 0.627195 0.750000
vt 0.625000 0.747805
vt 0.375000 0.252194
vt 0.625000 0.252194
vt 0.625000 0.497806
vt 0.375000 0.497806
vt 0.375000 0.702194
vt 0.625000 0.702194
vt 0.625000 0.747806
vt 0.375000 0.747805
vt 0.375000 0.652194
vt 0.625000 0.652194
vt 0.625000 0.697806
vt 0.375000 0.697806
vt 0.625000 0.552194
vt 0.627194 0.550000
vt 0.875000 0.552194
vt 0.875000 0.597806
vt 0.872805 0.600000
vt 0.627195 0.600000
vt 0.625000 0.597806
vt 0.625000 0.602194
vt 0.627194 0.600000
vt 0.875000 0.602194
vt 0.875000 0.647806
vt 0.872805 0.650000
vt 0.627195 0.650000
vt 0.625000 0.647806
vt 0.375000 0.202194
vt 0.625000 0.202194
vt 0.625000 0.247806
vt 0.375000 0.247806
vt 0.375000 0.102194
vt 0.625000 0.102194
vt 0.625000 0.147806
vt 0.375000 0.147806
vt 0.375000 0.052194
vt 0.625000 0.052194
vt 0.625000 0.097806
vt 0.375000 0.097806
vt 0.627194 0.650000
vt 0.875000 0.652194
vt 0.875000 0.697806
vt 0.872805 0.700000
vt 0.627195 0.700000
vt 0.375000 0.152194
vt 0.625000 0.152194
vt 0.625000 0.197806
vt 0.375000 0.197806
vt 0.375000 0.552194
vt 0.375000 0.597806
vt 0.375000 0.602194
vt 0.375000 0.647806
vt 0.375000 0.752194
vt 0.625000 0.752194
vt 0.625000 0.997806
vt 0.375000 0.997806
vt 0.125000 0.652194
vt 0.127194 0.650000
vt 0.372806 0.650000
vt 0.372806 0.700000
vt 0.127194 0.700000
vt 0.125000 0.697806
vt 0.125000 0.602194
vt 0.127194 0.600000
vt 0.372806 0.600000
vt 0.127194 0.650000
vt 0.125000 0.647806
vt 0.125000 0.552194
vt 0.127194 0.550000
vt 0.127194 0.600000
vt 0.125000 0.597806
vt 0.125000 0.550000
vt 0.125000 0.600000
vt 0.125000 0.650000
vt 0.125000 0.700000
vt 0.875000 0.700000
vt 0.875000 0.650000
vt 0.875000 0.600000
vt 0.875000 0.550000
vt 0.375000 0.702195
vt 0.625000 0.547805
vt 0.625000 0.597806
vt 0.625000 0.647806
vt 0.625000 0.002194
vt 0.375000 0.002194
vt 0.375000 0.047806
vt 0.625000 0.047806
vt 0.375000 0.000000
vt 0.625000 0.000000
s 0
usemtl Material.001
f 15/1/1 54/8/1 55/7/1 40/6/1 38/5/1 8/4/1 7/3/1 16/2/1
f 5/9/2 18/16/2 19/15/2 52/14/2 50/13/2 14/12/2 13/11/2 6/10/2
f 14/17/3 50/18/3 54/8/3 15/1/3
f 26/19/2 2/26/2 1/25/2 10/24/2 9/23/2 42/22/2 43/21/2 28/20/2
f 62/27/1 12/34/1 11/33/1 4/32/1 3/31/1 30/30/1 31/29/1 64/28/1
f 42/39/3 9/42/3 12/41/3 62/40/3
f 45/43/3 41/46/3 63/45/3 59/44/3
f 53/47/1 57/53/1 58/52/1 37/51/1 35/50/1 39/49/1 40/6/1 55/48/1
f 56/54/1 60/60/1 61/59/1 34/58/1 32/57/1 36/56/1 37/51/1 58/55/1
f 18/61/5 5/64/5 8/63/5 38/62/5
f 24/65/5 20/68/5 36/67/5 32/66/5
f 27/69/5 23/72/5 33/71/5 29/70/5
f 59/44/1 63/45/1 64/77/1 31/76/1 29/75/1 33/74/1 34/58/1 61/73/1
f 21/78/5 17/81/5 39/80/5 35/79/5
f 51/82/3 47/83/3 57/53/3 53/47/3
f 48/84/3 44/85/3 60/60/3 56/54/3
f 23/90/2 27/95/2 28/94/2 43/93/2 41/46/2 45/43/2 46/92/2 25/91/2
f 20/96/2 24/100/2 25/99/2 46/92/2 44/85/2 48/84/2 49/98/2 22/97/2
f 17/101/2 21/104/2 22/103/2 49/98/2 47/83/2 51/82/2 52/14/2 19/102/2
f 2/118/5 26/119/5 30/120/5 3/117/5
usemtl Material.002
f 6/35/4 13/38/4 16/37/4 7/36/4
f 10/86/6 1/89/6 4/88/6 11/87/6
f 17/101/2 19/15/2 18/105/2
f 20/96/2 22/103/2 21/106/2
f 23/90/2 25/99/2 24/107/2
f 26/19/2 28/94/2 27/108/2
f 29/109/1 31/29/1 30/30/1
f 32/110/1 34/58/1 33/74/1
f 35/111/1 37/51/1 36/56/1
f 38/112/1 40/6/1 39/49/1
f 41/46/2 43/21/2 42/113/2
f 44/85/2 46/92/2 45/43/2
f 47/83/2 49/98/2 48/84/2
f 50/18/2 52/14/2 51/82/2
f 53/47/1 55/7/1 54/114/1
f 56/54/1 58/52/1 57/115/1
f 59/44/1 61/59/1 60/116/1
f 62/40/1 64/77/1 63/45/1
f 8/4/1 85/4/1 86/3/1 7/3/1
f 32/66/4 75/66/4 70/65/4 24/65/4
f 59/44/6 101/44/6 92/43/6 45/43/6
f 12/34/1 109/34/1 110/33/1 11/33/1
f 47/83/4 93/83/4 100/53/4 57/53/4
f 54/114/1 98/114/1 97/47/1 53/47/1
f 13/38/4 108/38/4 105/37/4 16/37/4
f 56/54/6 99/54/6 94/84/6 48/84/6
f 39/49/1 80/49/1 79/112/1 38/112/1
f 24/107/2 70/107/2 69/90/2 23/90/2
f 3/117/4 84/117/4 81/118/4 2/118/4
f 26/119/6 71/119/6 74/120/6 30/120/6
f 82/121/7 81/118/7 84/117/7 83/122/7
f 86/36/8 85/63/8 88/64/8 87/35/8
f 73/70/5 74/120/5 71/119/5 72/69/5
f 75/66/5 76/71/5 69/72/5 70/65/5
f 77/79/5 78/67/5 67/68/5 68/78/5
f 79/62/5 80/80/5 65/81/5 66/61/5
f 23/72/6 69/72/6 76/71/6 33/71/6
f 18/105/2 66/105/2 65/101/2 17/101/2
f 7/36/4 86/36/4 87/35/4 6/35/4
f 33/74/1 76/74/1 75/110/1 32/110/1
f 35/79/4 77/79/4 68/78/4 21/78/4
f 6/10/2 87/10/2 88/9/2 5/9/2
f 27/108/2 72/108/2 71/19/2 26/19/2
f 20/68/6 67/68/6 78/67/6 36/67/6
f 5/64/6 88/64/6 85/63/6 8/63/6
f 2/26/2 81/26/2 82/25/2 1/25/2
f 38/62/4 79/62/4 66/61/4 18/61/4
f 21/106/2 68/106/2 67/96/2 20/96/2
f 36/56/1 78/56/1 77/111/1 35/111/1
f 1/89/6 82/89/6 83/88/6 4/88/6
f 17/81/6 65/81/6 80/80/6 39/80/6
f 29/70/4 73/70/4 72/69/4 27/69/4
f 30/30/1 74/30/1 73/109/1 29/109/1
f 4/32/1 83/32/1 84/31/1 3/31/1
f 106/1/9 105/37/9 108/38/9 107/17/9
f 110/87/10 109/41/10 112/42/10 111/86/10
f 97/47/3 98/8/3 95/18/3 96/82/3
f 99/54/3 100/53/3 93/83/3 94/84/3
f 101/44/3 102/60/3 91/85/3 92/43/3
f 103/40/3 104/45/3 89/46/3 90/39/3
f 48/84/2 94/84/2 93/83/2 47/83/2
f 63/45/1 104/45/1 103/40/1 62/40/1
f 11/87/6 110/87/6 111/86/6 10/86/6
f 44/85/4 91/85/4 102/60/4 60/60/4
f 10/24/2 111/24/2 112/23/2 9/23/2
f 42/113/2 90/113/2 89/46/2 41/46/2
f 57/115/1 100/115/1 99/54/1 56/54/1
f 62/40/6 103/40/6 90/39/6 42/39/6
f 9/42/4 112/42/4 109/41/4 12/41/4
f 16/2/1 105/2/1 106/1/1 15/1/1
f 41/46/4 89/46/4 104/45/4 63/45/4
f 51/82/2 96/82/2 95/18/2 50/18/2
f 53/47/6 97/47/6 96/82/6 51/82/6
f 15/1/6 106/1/6 107/17/6 14/17/6
f 50/18/4 95/18/4 98/8/4 54/8/4
f 45/43/2 92/43/2 91/85/2 44/85/2
f 60/116/1 102/116/1 101/44/1 59/44/1
f 14/12/2 107/12/2 108/11/2 13/11/2
