# Blender 4.2.3 LTS
# www.blender.org
mtllib MurGrand.mtl
o Cube.003
v 0.036802 -1.030138 3.265476
v 0.036802 -1.234517 4.865066
v 0.036802 -1.234517 4.065270
v 0.036802 -1.234517 3.265476
v 0.036802 -1.234517 2.465681
v 0.036802 -1.030138 4.065270
v 0.036802 -1.030138 4.865066
v 0.036802 -1.030138 2.465681
v -0.028914 -1.030138 4.865066
v -0.028914 -0.314760 4.865066
v 0.036119 -0.314760 3.265476
v 0.036119 -0.314760 4.065270
v 0.036119 -0.314760 4.865066
v 0.036119 -0.314760 2.465681
v 0.036802 -1.234517 5.009409
v 0.036802 -1.030138 5.009409
v 0.036119 -0.314760 5.009409
v 0.036119 -0.154438 5.009409
v 0.036802 -1.030138 1.665885
v 0.036802 -1.234517 0.009070
v 0.036802 -1.234517 0.866090
v 0.036802 -1.234517 1.665885
v 0.036802 -1.030138 0.866090
v 0.036802 -1.030138 0.009070
v 0.036119 -0.314760 1.665885
v 0.036119 -0.314760 0.866090
v 0.036119 -0.314760 0.009070
v -0.028914 -1.030138 3.243497
v -0.028914 -1.030138 3.287454
v 0.027447 -1.030138 3.265476
v -0.028914 -1.030138 4.043292
v -0.028914 -1.030138 4.087249
v 0.027447 -1.030138 4.065270
v -0.028914 -1.030138 2.443702
v -0.028914 -1.030138 2.487659
v 0.027447 -1.030138 2.465681
v -0.028914 -0.314760 3.287454
v -0.028914 -0.314760 3.243497
v 0.027447 -0.314760 3.265476
v -0.028914 -0.314760 4.087249
v -0.028914 -0.314760 4.043292
v 0.027447 -0.314760 4.065270
v -0.028914 -0.314760 2.487659
v -0.028914 -0.314760 2.443702
v 0.027447 -0.314760 2.465681
v -0.028914 -1.030138 1.643906
v -0.028914 -1.030138 1.687864
v 0.027447 -1.030138 1.665885
v -0.028914 -1.030138 0.844111
v -0.028914 -1.030138 0.888068
v 0.027447 -1.030138 0.866090
v -0.028914 -0.314760 1.687864
v -0.028914 -0.314760 1.643906
v 0.027447 -0.314760 1.665885
v -0.028914 -0.314760 0.888068
v -0.028914 -0.314760 0.844111
v 0.027447 -0.314760 0.866090
v -0.029283 -1.030138 3.243497
v -0.029283 -1.030138 3.287454
v -0.029283 -1.030138 4.043292
v -0.029283 -1.030138 4.087249
v -0.029283 -1.030138 2.443702
v -0.029283 -1.030138 2.487659
v -0.029283 -0.314760 3.287454
v -0.029283 -0.314760 3.243497
v -0.029283 -0.314760 4.087249
v -0.029283 -0.314760 4.043292
v -0.029283 -0.314760 2.487659
v -0.029283 -0.314760 2.443702
v -0.029283 -1.030138 1.643906
v -0.029283 -1.030138 1.687864
v -0.029283 -1.030138 0.844111
v -0.029283 -1.030138 0.888068
v -0.029283 -0.314760 1.687864
v -0.029283 -0.314760 1.643906
v -0.029283 -0.314760 0.888068
v -0.029283 -0.314760 0.844111
v 0.000209 -1.030138 3.243497
v 0.000209 -1.030138 3.287454
v 0.000209 -1.030138 4.043292
v 0.000209 -1.030138 4.087249
v 0.000209 -1.030138 2.443702
v 0.000209 -1.030138 2.487659
v 0.000209 -0.314760 3.287454
v 0.000209 -0.314760 3.243497
v 0.000209 -0.314760 4.087249
v 0.000209 -0.314760 4.043292
v 0.000209 -0.314760 2.487659
v 0.000209 -0.314760 2.443702
v 0.000209 -1.030138 1.643906
v 0.000209 -1.030138 1.687864
v 0.000209 -1.030138 0.844111
v 0.000209 -1.030138 0.888068
v 0.000209 -0.314760 1.687864
v 0.000209 -0.314760 1.643906
v 0.000209 -0.314760 0.888068
v 0.000209 -0.314760 0.844111
v 0.036119 2.120130 3.265476
v 0.036119 2.120130 4.065270
v 0.036119 2.120130 4.865066
v 0.036119 2.120130 2.465681
v 0.036119 2.120130 5.009409
v 0.036119 2.120130 1.665885
v 0.036119 2.120130 0.866090
v 0.036119 2.120130 0.009070
v 0.036802 -1.030138 -3.247335
v 0.036802 -1.234517 -4.846925
v 0.036802 -1.234517 -4.047130
v 0.036802 -1.234517 -3.247335
v 0.036802 -1.234517 -2.447540
v 0.036802 -1.030138 -4.047130
v 0.036802 -1.030138 -4.846925
v 0.036802 -1.030138 -2.447540
v -0.028914 -1.030138 -4.846925
v -0.028914 -0.314760 -4.846925
v 0.036119 -0.314760 -3.247335
v 0.036119 -0.314760 -4.047130
v 0.036119 -0.314760 -4.846925
v 0.036119 -0.314760 -2.447540
v 0.036802 -1.234517 -4.991269
v 0.036802 -1.030138 -4.991269
v 0.036119 -0.314760 -4.991269
v 0.036119 -0.154438 -4.991269
v 0.036802 -1.030138 -1.647745
v 0.036802 -1.234517 -0.847949
v 0.036802 -1.234517 -1.647745
v 0.036802 -1.030138 -0.847949
v 0.036119 -0.314760 -1.647745
v 0.036119 -0.314760 -0.847949
v -0.028914 -1.030138 -3.225356
v -0.028914 -1.030138 -3.269314
v 0.027447 -1.030138 -3.247335
v -0.028914 -1.030138 -4.025151
v -0.028914 -1.030138 -4.069108
v 0.027447 -1.030138 -4.047130
v -0.028914 -1.030138 -2.425561
v -0.028914 -1.030138 -2.469518
v 0.027447 -1.030138 -2.447540
v -0.028914 -0.314760 -3.269314
v -0.028914 -0.314760 -3.225356
v 0.027447 -0.314760 -3.247335
v -0.028914 -0.314760 -4.069108
v -0.028914 -0.314760 -4.025151
v 0.027447 -0.314760 -4.047130
v -0.028914 -0.314760 -2.469518
v -0.028914 -0.314760 -2.425561
v 0.027447 -0.314760 -2.447540
v -0.028914 -1.030138 -1.625766
v -0.028914 -1.030138 -1.669723
v 0.027447 -1.030138 -1.647745
v -0.028914 -1.030138 -0.825971
v -0.028914 -1.030138 -0.869928
v 0.027447 -1.030138 -0.847949
v -0.028914 -0.314760 -1.669723
v -0.028914 -0.314760 -1.625766
v 0.027447 -0.314760 -1.647745
v -0.028914 -0.314760 -0.869928
v -0.028914 -0.314760 -0.825971
v 0.027447 -0.314760 -0.847949
v -0.029283 -1.030138 -3.225356
v -0.029283 -1.030138 -3.269314
v -0.029283 -1.030138 -4.025151
v -0.029283 -1.030138 -4.069108
v -0.029283 -1.030138 -2.425561
v -0.029283 -1.030138 -2.469518
v -0.029283 -0.314760 -3.269314
v -0.029283 -0.314760 -3.225356
v -0.029283 -0.314760 -4.069108
v -0.029283 -0.314760 -4.025151
v -0.029283 -0.314760 -2.469518
v -0.029283 -0.314760 -2.425561
v -0.029283 -1.030138 -1.625766
v -0.029283 -1.030138 -1.669723
v -0.029283 -1.030138 -0.825971
v -0.029283 -1.030138 -0.869928
v -0.029283 -0.314760 -1.669723
v -0.029283 -0.314760 -1.625766
v -0.029283 -0.314760 -0.869928
v -0.029283 -0.314760 -0.825971
v 0.000209 -1.030138 -3.225356
v 0.000209 -1.030138 -3.269314
v 0.000209 -1.030138 -4.025151
v 0.000209 -1.030138 -4.069108
v 0.000209 -1.030138 -2.425561
v 0.000209 -1.030138 -2.469518
v 0.000209 -0.314760 -3.269314
v 0.000209 -0.314760 -3.225356
v 0.000209 -0.314760 -4.069108
v 0.000209 -0.314760 -4.025151
v 0.000209 -0.314760 -2.469518
v 0.000209 -0.314760 -2.425561
v 0.000209 -1.030138 -1.625766
v 0.000209 -1.030138 -1.669723
v 0.000209 -1.030138 -0.825971
v 0.000209 -1.030138 -0.869928
v 0.000209 -0.314760 -1.669723
v 0.000209 -0.314760 -1.625766
v 0.000209 -0.314760 -0.869928
v 0.000209 -0.314760 -0.825971
v 0.036119 2.120130 -3.247335
v 0.036119 2.120130 -4.047130
v 0.036119 2.120130 -4.846925
v 0.036119 2.120130 -2.447540
v 0.036119 2.120130 -4.991269
v 0.036119 2.120130 -1.647745
v 0.036119 2.120130 -0.847949
v -0.028914 -1.030138 -0.022189
v -0.028914 -1.030138 0.040329
v 0.002345 -1.030138 0.009070
v -0.028914 -0.314760 0.040329
v -0.028914 -0.314760 -0.022189
v 0.002345 -0.314760 0.009070
v -0.001604 -1.030138 -0.022189
v -0.001604 -1.030138 0.040329
v -0.001604 -0.314760 0.040329
v -0.001604 -0.314760 -0.022189
v 0.036119 1.851685 5.009409
v 0.036119 1.851685 -4.991269
v 0.036119 -0.154438 3.230861
v 0.036119 -0.154438 3.300090
v 0.036119 -0.189053 3.265476
v 0.036119 -0.154438 4.030656
v 0.036119 -0.154438 4.099885
v 0.036119 -0.189053 4.065270
v 0.036119 -0.154438 4.830451
v 0.036119 -0.154438 4.899681
v 0.036119 -0.189053 4.865066
v 0.036119 -0.154438 2.975116
v 0.036119 -0.154438 3.044345
v 0.036119 -0.189053 2.465681
v 0.036119 -0.154438 1.631271
v 0.036119 -0.154438 1.700500
v 0.036119 -0.189053 1.665885
v 0.036119 -0.154438 0.831475
v 0.036119 -0.154438 0.900704
v 0.036119 -0.189053 0.866090
v 0.036119 -0.154438 -0.025544
v 0.036119 -0.154438 0.043685
v 0.036119 -0.189053 0.009070
v 0.036119 -0.154438 -3.281949
v 0.036119 -0.154438 -3.212721
v 0.036119 -0.189053 -3.247335
v 0.036119 -0.154438 -4.081745
v 0.036119 -0.154438 -4.012516
v 0.036119 -0.189053 -4.047130
v 0.036119 -0.154438 -4.881540
v 0.036119 -0.154438 -4.812311
v 0.036119 -0.189053 -4.846925
v 0.036119 -0.154438 -3.025635
v 0.036119 -0.154438 -2.956406
v 0.036119 -0.189053 -2.447540
v 0.036119 -0.154438 -1.682359
v 0.036119 -0.154438 -1.613130
v 0.036119 -0.189053 -1.647745
v 0.036119 -0.154438 -0.882564
v 0.036119 -0.154438 -0.813335
v 0.036119 -0.189053 -0.847949
v 0.036119 1.851685 1.700500
v 0.036119 1.851685 1.631271
v 0.036119 1.886299 1.665885
v 0.036119 1.851685 3.044345
v 0.036119 1.851685 2.975116
v 0.036119 1.886299 2.465681
v 0.036119 1.851685 0.900704
v 0.036119 1.851685 0.831475
v 0.036119 1.886299 0.866090
v 0.036119 1.851685 3.300090
v 0.036119 1.851685 3.230861
v 0.036119 1.886299 3.265476
v 0.036119 1.851685 4.099885
v 0.036119 1.851685 4.030656
v 0.036119 1.886299 4.065270
v 0.036119 1.851685 0.043685
v 0.036119 1.851685 -0.025544
v 0.036119 1.886299 0.009070
v 0.036119 1.851685 4.899681
v 0.036119 1.851685 4.830451
v 0.036119 1.886299 4.865066
v 0.036119 1.851685 -1.613130
v 0.036119 1.851685 -1.682359
v 0.036119 1.886299 -1.647745
v 0.036119 1.851685 -2.956406
v 0.036119 1.851685 -3.025635
v 0.036119 1.886299 -2.447540
v 0.036119 1.851685 -0.813335
v 0.036119 1.851685 -0.882564
v 0.036119 1.886299 -0.847949
v 0.036119 1.851685 -3.212721
v 0.036119 1.851685 -3.281949
v 0.036119 1.886299 -3.247335
v 0.036119 1.851685 -4.012516
v 0.036119 1.851685 -4.081745
v 0.036119 1.886299 -4.047130
v 0.036119 1.851685 -4.812311
v 0.036119 1.851685 -4.881540
v 0.036119 1.886299 -4.846925
v -0.053578 -1.234517 4.865066
v -0.053578 -1.234517 4.065270
v -0.053578 -1.234517 3.265476
v -0.053578 -1.234517 2.465681
v -0.053578 -1.234517 0.866090
v -0.053578 -1.234517 1.665885
v -0.054262 2.120130 3.265476
v -0.054262 2.120130 4.065270
v -0.054262 2.120130 2.465681
v -0.054262 2.120130 0.866090
v -0.053578 -1.234517 -4.846925
v -0.053578 -1.234517 -4.047130
v -0.053578 -1.234517 -4.991269
v -0.053578 -1.234517 -1.647745
v -0.054262 2.120130 -4.047130
v -0.054262 2.120130 -4.846925
v -0.054262 2.120130 -2.447540
v -0.054262 2.120130 -0.847949
v -0.053578 -1.234517 5.009409
v -0.053578 -1.234517 0.009070
v -0.054262 2.120130 4.865066
v -0.054262 2.120130 5.009409
v -0.054262 2.120130 1.665885
v -0.054262 2.120130 0.009070
v -0.053578 -1.234517 -3.247335
v -0.053578 -1.234517 -2.447540
v -0.053578 -1.234517 -0.847949
v -0.054262 2.120130 -3.247335
v -0.054262 2.120130 -4.991269
v -0.054262 2.120130 -1.647745
v -0.053798 -0.154425 0.009070
v -0.053798 -0.154425 3.009730
v -0.053798 -0.154425 3.265476
v 0.036582 -0.154424 5.009409
v -0.053798 -0.154425 0.866090
v -0.053798 -0.154425 1.665885
v -0.053798 -0.154425 5.009409
v -0.053798 -0.154425 4.065270
v -0.053798 -0.154424 4.865066
v -0.053798 -0.154425 -4.991269
v -0.053798 -0.154425 -4.846925
v 0.036582 -0.154425 -4.991269
v -0.053798 -0.154425 -0.847949
v -0.053798 -0.154425 -1.647745
v -0.053798 -0.154425 -2.991020
v -0.053798 -0.154425 -3.247335
v -0.053798 -0.154425 -4.047130
v -0.054207 1.849118 4.865066
v 0.036174 1.849118 5.009409
v -0.054207 1.849118 0.009070
v -0.054207 1.849118 3.009730
v -0.054207 1.849118 3.265476
v -0.054207 1.849118 0.866090
v -0.054207 1.849118 1.665885
v -0.054207 1.849118 5.009409
v -0.054207 1.849118 4.065270
v -0.054207 1.849118 -4.991269
v -0.054207 1.849118 -4.846925
v 0.036174 1.849118 -4.991269
v -0.054207 1.849118 -0.847949
v -0.054207 1.849118 -1.647745
v -0.054207 1.849118 -2.991020
v -0.054207 1.849118 -3.247335
v -0.054207 1.849118 -4.047130
v -0.053578 -1.234517 -3.268679
vn 1.0000 -0.0000 -0.0000
vn -0.0000 1.0000 -0.0000
vn -0.0000 -0.0000 -1.0000
vn -0.0000 -1.0000 -0.0000
vn -0.0000 -0.0000 1.0000
vn 1.0000 0.0010 -0.0000
vn -1.0000 -0.0002 -0.0000
vn 0.0002 1.0000 -0.0000
vn 0.0284 -0.9996 -0.0000
vn -1.0000 -0.0000 -0.0000
vn 1.0000 0.0002 -0.0000
vn 0.3585 -0.0000 -0.9335
vn -0.3585 -0.0000 -0.9335
vt 0.000000 0.000000
s 0
usemtl Material.001
f 4/1/1 5/1/1 8/1/1 1/1/1
f 3/1/1 4/1/1 1/1/1 6/1/1
f 2/1/1 3/1/1 6/1/1 7/1/1
f 1/1/2 8/1/2 36/1/2 35/1/2 28/1/2 30/1/2
f 19/1/2 48/1/2 47/1/2 34/1/2 36/1/2 8/1/2
f 31/1/1 29/1/1 37/1/1 41/1/1
f 9/1/1 32/1/1 40/1/1 10/1/1
f 7/1/2 6/1/2 33/1/2 32/1/2 9/1/2
f 6/1/2 1/1/2 30/1/2 29/1/2 31/1/2 33/1/2
f 13/1/1 227/1/1 226/1/1 18/1/1 17/1/1
f 336/1/3 353/1/3 355/1/3 338/1/3
f 10/1/4 40/1/4 42/1/4 12/1/4 13/1/4
f 52/1/4 54/1/4 25/1/4 14/1/4 45/1/4 44/1/4
f 42/1/4 41/1/4 37/1/4 39/1/4 11/1/4 12/1/4
f 18/1/1 226/1/1 276/1/1 217/1/1
f 2/1/1 7/1/1 16/1/1 15/1/1
f 10/1/5 9/1/5 7/1/5 13/1/5
f 7/1/6 13/1/6 17/1/6 16/1/6
f 22/1/1 19/1/1 8/1/1 5/1/1
f 21/1/1 23/1/1 19/1/1 22/1/1
f 20/1/1 24/1/1 23/1/1 21/1/1
f 24/1/2 209/1/2 208/1/2 49/1/2 51/1/2 23/1/2
f 55/1/4 57/1/4 26/1/4 25/1/4 54/1/4 53/1/4
f 47/1/1 52/1/1 44/1/1 34/1/1
f 23/1/2 51/1/2 50/1/2 46/1/2 48/1/2 19/1/2
f 207/1/1 151/1/1 158/1/1 211/1/1
f 39/1/4 38/1/4 43/1/4 45/1/4 14/1/4 11/1/4
f 27/1/1 129/1/1 257/1/1 256/1/1 237/1/1 239/1/1
f 50/1/1 55/1/1 53/1/1 46/1/1
f 28/1/2 29/1/2 30/1/2
f 31/1/2 32/1/2 33/1/2
f 34/1/2 35/1/2 36/1/2
f 37/1/4 38/1/4 39/1/4
f 40/1/4 41/1/4 42/1/4
f 43/1/4 44/1/4 45/1/4
f 46/1/2 47/1/2 48/1/2
f 49/1/2 50/1/2 51/1/2
f 52/1/4 53/1/4 54/1/4
f 55/1/4 56/1/4 57/1/4
f 56/1/4 55/1/4 76/1/4 77/1/4
f 41/1/4 40/1/4 66/1/4 67/1/4
f 43/1/3 35/1/3 63/1/3 68/1/3
f 34/1/5 44/1/5 69/1/5 62/1/5
f 47/1/2 46/1/2 70/1/2 71/1/2
f 28/1/1 35/1/1 43/1/1 38/1/1
f 76/1/5 73/1/5 93/1/5 96/1/5
f 65/1/2 64/1/2 84/1/2 85/1/2
f 58/1/3 65/1/3 85/1/3 78/1/3
f 74/1/5 71/1/5 91/1/5 94/1/5
f 63/1/4 62/1/4 82/1/4 83/1/4
f 46/1/5 53/1/5 75/1/5 70/1/5
f 35/1/2 34/1/2 62/1/2 63/1/2
f 50/1/2 49/1/2 72/1/2 73/1/2
f 52/1/3 47/1/3 71/1/3 74/1/3
f 28/1/5 38/1/5 65/1/5 58/1/5
f 55/1/3 50/1/3 73/1/3 76/1/3
f 29/1/2 28/1/2 58/1/2 59/1/2
f 44/1/4 43/1/4 68/1/4 69/1/4
f 37/1/3 29/1/3 59/1/3 64/1/3
f 49/1/5 56/1/5 77/1/5 72/1/5
f 40/1/3 32/1/3 61/1/3 66/1/3
f 38/1/4 37/1/4 64/1/4 65/1/4
f 53/1/4 52/1/4 74/1/4 75/1/4
f 31/1/5 41/1/5 67/1/5 60/1/5
f 32/1/2 31/1/2 60/1/2 61/1/2
f 78/1/1 85/1/1 84/1/1 79/1/1
f 86/1/1 81/1/1 80/1/1 87/1/1
f 82/1/1 89/1/1 88/1/1 83/1/1
f 90/1/1 95/1/1 94/1/1 91/1/1
f 96/1/1 93/1/1 92/1/1 97/1/1
f 64/1/5 59/1/5 79/1/5 84/1/5
f 67/1/2 66/1/2 86/1/2 87/1/2
f 72/1/3 77/1/3 97/1/3 92/1/3
f 66/1/5 61/1/5 81/1/5 86/1/5
f 69/1/2 68/1/2 88/1/2 89/1/2
f 60/1/3 67/1/3 87/1/3 80/1/3
f 71/1/4 70/1/4 90/1/4 91/1/4
f 62/1/3 69/1/3 89/1/3 82/1/3
f 73/1/4 72/1/4 92/1/4 93/1/4
f 59/1/4 58/1/4 78/1/4 79/1/4
f 68/1/5 63/1/5 83/1/5 88/1/5
f 75/1/2 74/1/2 94/1/2 95/1/2
f 61/1/4 60/1/4 80/1/4 81/1/4
f 70/1/3 75/1/3 95/1/3 90/1/3
f 77/1/2 76/1/2 96/1/2 97/1/2
f 269/1/1 268/1/1 261/1/1 263/1/1 101/1/1 98/1/1
f 263/1/1 262/1/1 258/1/1 260/1/1 103/1/1 101/1/1
f 266/1/1 265/1/1 273/1/1 275/1/1 105/1/1 104/1/1
f 278/1/1 277/1/1 270/1/1 272/1/1 99/1/1 100/1/1
f 272/1/1 271/1/1 267/1/1 269/1/1 98/1/1 99/1/1
f 279/1/1 281/1/1 205/1/1 206/1/1 287/1/1 286/1/1
f 285/1/1 287/1/1 206/1/1 105/1/1 275/1/1 274/1/1
f 109/1/1 106/1/1 113/1/1 110/1/1
f 108/1/1 111/1/1 106/1/1 109/1/1
f 107/1/1 112/1/1 111/1/1 108/1/1
f 106/1/2 132/1/2 130/1/2 137/1/2 138/1/2 113/1/2
f 124/1/2 113/1/2 138/1/2 136/1/2 149/1/2 150/1/2
f 133/1/1 143/1/1 139/1/1 131/1/1
f 114/1/1 115/1/1 142/1/1 134/1/1
f 112/1/2 114/1/2 134/1/2 135/1/2 111/1/2
f 111/1/2 135/1/2 133/1/2 131/1/2 132/1/2 106/1/2
f 118/1/1 122/1/1 123/1/1 246/1/1 248/1/1
f 115/1/4 118/1/4 117/1/4 144/1/4 142/1/4
f 154/1/4 146/1/4 147/1/4 119/1/4 128/1/4 156/1/4
f 144/1/4 117/1/4 116/1/4 141/1/4 139/1/4 143/1/4
f 123/1/1 218/1/1 295/1/1 246/1/1
f 107/1/1 120/1/1 121/1/1 112/1/1
f 115/1/3 118/1/3 112/1/3 114/1/3
f 112/1/6 121/1/6 122/1/6 118/1/6
f 126/1/1 110/1/1 113/1/1 124/1/1
f 125/1/1 126/1/1 124/1/1 127/1/1
f 20/1/1 125/1/1 127/1/1 24/1/1
f 212/1/4 211/1/4 158/1/4 159/1/4 129/1/4 27/1/4
f 157/1/4 155/1/4 156/1/4 128/1/4 129/1/4 159/1/4
f 149/1/1 136/1/1 146/1/1 154/1/1
f 127/1/2 124/1/2 150/1/2 148/1/2 152/1/2 153/1/2
f 208/1/1 210/1/1 56/1/1 49/1/1
f 141/1/4 116/1/4 119/1/4 147/1/4 145/1/4 140/1/4
f 336/1/7 337/1/7 354/1/7 353/1/7
f 210/1/4 212/1/4 27/1/4 26/1/4 57/1/4 56/1/4
f 152/1/1 148/1/1 155/1/1 157/1/1
f 130/1/2 132/1/2 131/1/2
f 133/1/2 135/1/2 134/1/2
f 136/1/2 138/1/2 137/1/2
f 139/1/4 141/1/4 140/1/4
f 142/1/4 144/1/4 143/1/4
f 145/1/4 147/1/4 146/1/4
f 148/1/2 150/1/2 149/1/2
f 151/1/2 153/1/2 152/1/2
f 154/1/4 156/1/4 155/1/4
f 157/1/4 159/1/4 158/1/4
f 158/1/4 179/1/4 178/1/4 157/1/4
f 143/1/4 169/1/4 168/1/4 142/1/4
f 145/1/5 170/1/5 165/1/5 137/1/5
f 136/1/3 164/1/3 171/1/3 146/1/3
f 149/1/2 173/1/2 172/1/2 148/1/2
f 130/1/1 140/1/1 145/1/1 137/1/1
f 178/1/3 198/1/3 195/1/3 175/1/3
f 167/1/2 187/1/2 186/1/2 166/1/2
f 160/1/5 180/1/5 187/1/5 167/1/5
f 176/1/3 196/1/3 193/1/3 173/1/3
f 165/1/4 185/1/4 184/1/4 164/1/4
f 148/1/3 172/1/3 177/1/3 155/1/3
f 137/1/2 165/1/2 164/1/2 136/1/2
f 152/1/2 175/1/2 174/1/2 151/1/2
f 154/1/5 176/1/5 173/1/5 149/1/5
f 130/1/3 160/1/3 167/1/3 140/1/3
f 157/1/5 178/1/5 175/1/5 152/1/5
f 131/1/2 161/1/2 160/1/2 130/1/2
f 146/1/4 171/1/4 170/1/4 145/1/4
f 139/1/5 166/1/5 161/1/5 131/1/5
f 151/1/3 174/1/3 179/1/3 158/1/3
f 142/1/5 168/1/5 163/1/5 134/1/5
f 140/1/4 167/1/4 166/1/4 139/1/4
f 155/1/4 177/1/4 176/1/4 154/1/4
f 133/1/3 162/1/3 169/1/3 143/1/3
f 134/1/2 163/1/2 162/1/2 133/1/2
f 180/1/1 181/1/1 186/1/1 187/1/1
f 188/1/1 189/1/1 182/1/1 183/1/1
f 184/1/1 185/1/1 190/1/1 191/1/1
f 192/1/1 193/1/1 196/1/1 197/1/1
f 198/1/1 199/1/1 194/1/1 195/1/1
f 166/1/3 186/1/3 181/1/3 161/1/3
f 169/1/2 189/1/2 188/1/2 168/1/2
f 174/1/5 194/1/5 199/1/5 179/1/5
f 168/1/3 188/1/3 183/1/3 163/1/3
f 171/1/2 191/1/2 190/1/2 170/1/2
f 162/1/5 182/1/5 189/1/5 169/1/5
f 173/1/4 193/1/4 192/1/4 172/1/4
f 164/1/5 184/1/5 191/1/5 171/1/5
f 175/1/4 195/1/4 194/1/4 174/1/4
f 161/1/4 181/1/4 180/1/4 160/1/4
f 170/1/3 190/1/3 185/1/3 165/1/3
f 177/1/2 197/1/2 196/1/2 176/1/2
f 163/1/4 183/1/4 182/1/4 162/1/4
f 172/1/5 192/1/5 197/1/5 177/1/5
f 179/1/2 199/1/2 198/1/2 178/1/2
f 288/1/1 290/1/1 200/1/1 203/1/1 284/1/1 283/1/1
f 282/1/1 284/1/1 203/1/1 205/1/1 281/1/1 280/1/1
f 291/1/1 293/1/1 201/1/1 200/1/1 290/1/1 289/1/1
f 294/1/1 296/1/1 202/1/1 201/1/1 293/1/1 292/1/1
f 217/1/1 276/1/1 278/1/1 100/1/1 102/1/1
f 218/1/1 204/1/1 202/1/1 296/1/1 295/1/1
f 207/1/2 208/1/2 209/1/2
f 210/1/4 211/1/4 212/1/4
f 207/1/3 211/1/3 216/1/3 213/1/3
f 24/1/2 127/1/2 153/1/2 151/1/2 207/1/2 209/1/2
f 215/1/1 214/1/1 213/1/1 216/1/1
f 208/1/4 207/1/4 213/1/4 214/1/4
f 210/1/5 208/1/5 214/1/5 215/1/5
f 211/1/2 210/1/2 215/1/2 216/1/2
f 118/1/1 248/1/1 247/1/1 243/1/1 245/1/1 117/1/1
f 128/1/1 119/1/1 251/1/1 250/1/1 252/1/1 254/1/1
f 117/1/1 245/1/1 244/1/1 240/1/1 242/1/1 116/1/1
f 116/1/1 242/1/1 241/1/1 249/1/1 251/1/1 119/1/1
f 299/1/7 298/1/7 334/1/7 329/1/7
f 260/1/1 259/1/1 264/1/1 266/1/1 104/1/1 103/1/1
f 129/1/1 128/1/1 254/1/1 253/1/1 255/1/1 257/1/1
f 13/1/1 12/1/1 224/1/1 223/1/1 225/1/1 227/1/1
f 25/1/1 233/1/1 232/1/1 228/1/1 230/1/1 14/1/1
f 27/1/1 239/1/1 238/1/1 234/1/1 236/1/1 26/1/1
f 11/1/1 14/1/1 230/1/1 229/1/1 219/1/1 221/1/1
f 344/1/7 335/1/7 333/1/7 351/1/7
f 345/1/5 351/1/5 333/1/5 330/1/5
f 26/1/1 236/1/1 235/1/1 231/1/1 233/1/1 25/1/1
f 219/1/1 220/1/1 221/1/1
f 222/1/1 223/1/1 224/1/1
f 225/1/1 226/1/1 227/1/1
f 228/1/1 229/1/1 230/1/1
f 231/1/1 232/1/1 233/1/1
f 234/1/1 235/1/1 236/1/1
f 237/1/1 238/1/1 239/1/1
f 240/1/1 241/1/1 242/1/1
f 243/1/1 244/1/1 245/1/1
f 246/1/1 247/1/1 248/1/1
f 249/1/1 250/1/1 251/1/1
f 252/1/1 253/1/1 254/1/1
f 255/1/1 256/1/1 257/1/1
f 258/1/1 259/1/1 260/1/1
f 261/1/1 262/1/1 263/1/1
f 264/1/1 265/1/1 266/1/1
f 267/1/1 268/1/1 269/1/1
f 270/1/1 271/1/1 272/1/1
f 273/1/1 274/1/1 275/1/1
f 276/1/1 277/1/1 278/1/1
f 279/1/1 280/1/1 281/1/1
f 282/1/1 283/1/1 284/1/1
f 285/1/1 286/1/1 287/1/1
f 288/1/1 289/1/1 290/1/1
f 291/1/1 292/1/1 293/1/1
f 294/1/1 295/1/1 296/1/1
f 298/1/7 297/1/7 335/1/7 334/1/7
f 300/1/7 299/1/7 329/1/7 328/1/7
f 309/1/3 336/1/3 338/1/3 120/1/3
f 300/1/7 328/1/7 332/1/7 302/1/7
f 302/1/7 332/1/7 331/1/7 301/1/7
f 310/1/7 323/1/7 339/1/7 340/1/7
f 322/1/7 310/1/7 340/1/7 341/1/7
f 322/1/7 341/1/7 342/1/7 321/1/7
f 321/1/7 342/1/7 343/1/7 308/1/7
f 308/1/7 343/1/7 337/1/7 307/1/7
f 309/1/7 307/1/7 337/1/7 336/1/7
f 12/1/1 11/1/1 221/1/1 220/1/1 222/1/1 224/1/1
f 348/1/7 352/1/7 304/1/7 303/1/7
f 110/1/4 126/1/4 310/1/4 322/1/4
f 200/1/2 201/1/2 311/1/2 324/1/2
f 335/1/7 297/1/7 315/1/7 333/1/7
f 201/1/2 202/1/2 312/1/2 311/1/2
f 107/1/4 108/1/4 308/1/4 307/1/4
f 203/1/2 200/1/2 324/1/2 313/1/2
f 20/1/4 21/1/4 301/1/4 316/1/4
f 108/1/4 109/1/4 321/1/4 308/1/4
f 202/1/2 204/1/2 325/1/2 312/1/2
f 21/1/4 22/1/4 302/1/4 301/1/4
f 330/1/5 333/1/5 315/1/5 15/1/5
f 109/1/4 110/1/4 322/1/4 321/1/4
f 206/1/2 205/1/2 326/1/2 314/1/2
f 22/1/4 5/1/4 300/1/4 302/1/4
f 105/1/2 206/1/2 314/1/2 320/1/2
f 99/1/2 98/1/2 303/1/2 304/1/2
f 3/1/4 2/1/4 297/1/4 298/1/4
f 205/1/2 203/1/2 313/1/2 326/1/2
f 100/1/2 99/1/2 304/1/2 317/1/2
f 4/1/4 3/1/4 298/1/4 299/1/4
f 120/1/4 107/1/4 307/1/4 309/1/4
f 352/1/7 344/1/7 317/1/7 304/1/7
f 98/1/2 101/1/2 305/1/2 303/1/2
f 5/1/4 4/1/4 299/1/4 300/1/4
f 347/1/7 348/1/7 303/1/7 305/1/7
f 102/1/2 100/1/2 317/1/2 318/1/2
f 103/1/2 104/1/2 306/1/2 319/1/2
f 104/1/2 105/1/2 320/1/2 306/1/2
f 125/1/4 20/1/4 316/1/4 323/1/4
f 2/1/4 15/1/4 315/1/4 297/1/4
f 101/1/2 103/1/2 319/1/2 305/1/2
f 126/1/4 125/1/4 323/1/4 310/1/4
f 353/1/3 325/1/3 204/1/3 355/1/3
f 347/1/7 305/1/7 319/1/7 350/1/7
f 350/1/7 319/1/7 306/1/7 349/1/7
f 327/1/7 316/1/7 301/1/7 331/1/7
f 327/1/7 339/1/7 323/1/7 316/1/7
f 357/1/7 356/1/7 314/1/7 326/1/7
f 358/1/7 357/1/7 326/1/7 313/1/7
f 358/1/7 313/1/7 324/1/7 359/1/7
f 359/1/7 324/1/7 311/1/7 360/1/7
f 360/1/7 311/1/7 312/1/7 354/1/7
f 353/1/7 354/1/7 312/1/7 325/1/7
f 320/1/7 314/1/7 356/1/7 346/1/7
f 320/1/7 346/1/7 349/1/7 306/1/7
f 102/1/5 318/1/5 351/1/5 345/1/5
f 317/1/7 344/1/7 351/1/7 318/1/7
f 250/1/8 249/1/8 341/1/8
f 342/1/8 241/1/8 240/1/8
f 243/1/8 343/1/8 244/1/8
f 246/1/8 337/1/8 247/1/8
f 294/1/9 354/1/9 295/1/9
f 291/1/9 360/1/9 292/1/9
f 288/1/9 359/1/9 289/1/9
f 282/1/9 358/1/9 283/1/9
f 279/1/9 357/1/9 280/1/9
f 285/1/9 356/1/9 286/1/9
f 273/1/9 346/1/9 274/1/9
f 349/1/9 265/1/9 264/1/9
f 258/1/9 350/1/9 259/1/9
f 261/1/9 347/1/9 262/1/9
f 337/1/8 343/1/8 243/1/8 247/1/8
f 342/1/8 240/1/8 244/1/8 343/1/8
f 341/1/8 249/1/8 241/1/8 342/1/8
f 340/1/8 252/1/8 250/1/8 341/1/8
f 252/1/8 340/1/8 253/1/8
f 339/1/8 255/1/8 253/1/8 340/1/8
f 255/1/8 339/1/8 256/1/8
f 237/1/8 327/1/8 238/1/8
f 234/1/8 331/1/8 235/1/8
f 231/1/8 332/1/8 232/1/8
f 228/1/8 328/1/8 229/1/8
f 219/1/8 329/1/8 220/1/8
f 222/1/8 334/1/8 223/1/8
f 225/1/8 335/1/8 226/1/8
f 223/1/8 334/1/8 335/1/8 225/1/8
f 220/1/8 329/1/8 334/1/8 222/1/8
f 229/1/8 328/1/8 329/1/8 219/1/8
f 232/1/8 332/1/8 328/1/8 228/1/8
f 235/1/8 331/1/8 332/1/8 231/1/8
f 234/1/8 238/1/8 327/1/8 331/1/8
f 327/1/8 237/1/8 256/1/8 339/1/8
f 294/1/9 292/1/9 360/1/9 354/1/9
f 291/1/9 289/1/9 359/1/9 360/1/9
f 288/1/9 283/1/9 358/1/9 359/1/9
f 282/1/9 280/1/9 357/1/9 358/1/9
f 279/1/9 286/1/9 356/1/9 357/1/9
f 274/1/9 346/1/9 356/1/9 285/1/9
f 265/1/9 349/1/9 346/1/9 273/1/9
f 264/1/9 259/1/9 350/1/9 349/1/9
f 258/1/9 262/1/9 347/1/9 350/1/9
f 261/1/9 268/1/9 348/1/9 347/1/9
f 268/1/9 267/1/9 348/1/9
f 267/1/9 271/1/9 352/1/9 348/1/9
f 271/1/9 270/1/9 352/1/9
f 270/1/9 277/1/9 344/1/9 352/1/9
f 277/1/9 276/1/9 344/1/9
f 292/1/10 294/1/10 247/1/10 243/1/10
f 295/1/10 246/1/10 247/1/10 294/1/10
f 360/1/11 343/1/11 337/1/11 354/1/11
f 292/1/10 243/1/10 244/1/10 291/1/10
f 291/1/10 244/1/10 240/1/10 289/1/10
f 359/1/11 342/1/11 343/1/11 360/1/11
f 289/1/10 240/1/10 241/1/10 288/1/10
f 358/1/11 341/1/11 342/1/11 359/1/11
f 288/1/10 241/1/10 249/1/10 283/1/10
f 283/1/10 249/1/10 250/1/10 282/1/10
f 282/1/12 250/1/12 341/1/12 358/1/12
f 277/1/10 225/1/10 226/1/10 276/1/10
f 225/1/10 277/1/10 270/1/10 223/1/10
f 271/1/10 222/1/10 223/1/10 270/1/10
f 267/1/10 220/1/10 222/1/10 271/1/10
f 268/1/10 219/1/10 220/1/10 267/1/10
f 219/1/10 268/1/10 261/1/10 229/1/10
f 262/1/10 228/1/10 229/1/10 261/1/10
f 328/1/13 347/1/13 262/1/13 228/1/13
f 348/1/11 329/1/11 328/1/11 347/1/11
f 352/1/11 334/1/11 329/1/11 348/1/11
f 352/1/11 344/1/11 335/1/11 334/1/11
