# Blender 4.2.3 LTS
# www.blender.org
mtllib MurPorte.mtl
o Cube.001
v -2.523287 -1.163844 0.056455
v -2.523287 2.137417 0.056455
v -2.523287 -1.163844 -0.043520
v -2.523287 2.137417 -0.043520
v 2.528889 -1.163844 0.056455
v 2.528889 2.137417 0.056455
v 2.528889 -1.163844 -0.043520
v 2.528889 2.137417 -0.043520
v -2.523287 -1.015821 0.056455
v -2.523287 -0.280442 0.056455
v -2.523287 -0.280442 -0.043520
v -2.523287 -1.015821 -0.043520
v 2.528889 -0.280442 -0.043520
v 2.528889 -1.015821 -0.043520
v 2.528889 -0.280442 0.056455
v 2.528889 -1.015821 0.056455
v 2.427737 -1.163844 -0.043520
v 2.427737 2.137417 -0.043520
v 2.427737 -1.163844 0.056455
v 2.427737 2.137417 0.056455
v 2.427737 -1.015821 0.056455
v 2.427737 -0.280442 0.056455
v -2.418255 -1.163844 -0.043520
v -2.418255 2.137417 0.056455
v -2.418255 -1.015821 0.056455
v -2.418255 -0.280442 0.056455
v -2.418255 2.137417 -0.043520
v -2.418255 -1.163844 0.056455
v -1.879812 2.137417 -0.043520
v -1.341368 2.137417 -0.043520
v -0.802925 2.137417 -0.043520
v -0.264481 2.137417 -0.043520
v 0.273963 2.137417 -0.043520
v 0.812406 2.137417 -0.043520
v 1.350850 2.137417 -0.043520
v 1.889294 2.137417 -0.043520
v -1.879812 -1.163844 0.056455
v -1.341368 -1.163844 0.056455
v 1.350850 -1.163844 0.056455
v 1.889294 -1.163844 0.056455
v 1.889294 -1.163844 -0.043520
v 1.350850 -1.163844 -0.043520
v -1.341368 -1.163844 -0.043520
v -1.879812 -1.163844 -0.043520
v 1.889294 2.137417 0.056455
v 1.350850 2.137417 0.056455
v 0.812406 2.137417 0.056455
v 0.273963 2.137417 0.056455
v -0.264481 2.137417 0.056455
v -0.802925 2.137417 0.056455
v -1.341368 2.137417 0.056455
v -1.879812 2.137417 0.056455
v 1.889294 -1.015821 0.056455
v 1.350850 -1.015821 0.056455
v -1.341368 -1.015821 0.056455
v -1.879812 -1.015821 0.056455
v 1.889294 -0.280442 0.056455
v 1.350850 -0.280442 0.056455
v -1.341368 -0.280442 0.056455
v -1.879812 -0.280442 0.056455
v 2.402476 -1.015821 -0.043520
v 2.452998 -1.015821 -0.043520
v 2.427737 -1.032327 -0.043520
v 2.452998 -0.280442 -0.043520
v 2.402476 -0.280442 -0.043520
v 2.427737 -0.263936 -0.043520
v -2.443516 -1.015821 -0.043520
v -2.392994 -1.015821 -0.043520
v -2.418255 -1.032327 -0.043520
v -2.392994 -0.280442 -0.043520
v -2.443516 -0.280442 -0.043520
v -2.418255 -0.263936 -0.043520
v -1.905072 -1.015821 -0.043520
v -1.854551 -1.015821 -0.043520
v -1.879812 -1.032327 -0.043520
v -1.366629 -1.015821 -0.043520
v -1.316107 -1.015821 -0.043520
v -1.341368 -1.032327 -0.043520
v 1.325589 -1.015821 -0.043520
v 1.376111 -1.015821 -0.043520
v 1.350850 -1.032327 -0.043520
v 1.864033 -1.015821 -0.043520
v 1.914554 -1.015821 -0.043520
v 1.889294 -1.032327 -0.043520
v -1.854551 -0.280442 -0.043520
v -1.905072 -0.280442 -0.043520
v -1.879812 -0.263936 -0.043520
v -1.316107 -0.280442 -0.043520
v -1.366629 -0.280442 -0.043520
v -1.341368 -0.263936 -0.043520
v 1.376111 -0.280442 -0.043520
v 1.325589 -0.280442 -0.043520
v 1.350850 -0.263936 -0.043520
v 1.914554 -0.280442 -0.043520
v 1.864033 -0.280442 -0.043520
v 1.889294 -0.263936 -0.043520
v -1.905072 -1.015821 0.016250
v -1.854551 -1.015821 0.016250
v -1.366629 -1.015821 0.016250
v -1.316107 -1.015821 0.016250
v 1.325589 -1.015821 0.016250
v 1.376111 -1.015821 0.016250
v 1.864033 -1.015821 0.016250
v 1.914554 -1.015821 0.016250
v -1.854551 -0.280442 0.016250
v -1.905072 -0.280442 0.016250
v -1.316107 -0.280442 0.016250
v -1.366629 -0.280442 0.016250
v 1.376111 -0.280442 0.016250
v 1.325589 -0.280442 0.016250
v 1.914554 -0.280442 0.016250
v 1.864033 -0.280442 0.016250
v 2.402476 -1.015821 0.016250
v 2.402476 -0.280442 0.016250
v -2.392994 -0.280442 0.016250
v -2.392994 -1.015821 0.016250
v -1.905072 -1.015821 -0.024244
v -1.854551 -1.015821 -0.024244
v -1.366629 -1.015821 -0.024244
v -1.316107 -1.015821 -0.024244
v 1.325589 -1.015821 -0.024244
v 1.376111 -1.015821 -0.024244
v 1.864033 -1.015821 -0.024244
v 1.914554 -1.015821 -0.024244
v -1.854551 -0.280442 -0.024244
v -1.905072 -0.280442 -0.024244
v -1.316107 -0.280442 -0.024244
v -1.366629 -0.280442 -0.024244
v 1.376111 -0.280442 -0.024244
v 1.325589 -0.280442 -0.024244
v 1.914554 -0.280442 -0.024244
v 1.864033 -0.280442 -0.024244
v 0.543185 2.137417 -0.043520
v 0.543185 2.137417 0.056455
v -0.533703 2.137417 -0.043520
v -0.533703 2.137417 0.056455
v 0.812406 0.836814 -0.043520
v -1.879812 0.837706 -0.043520
v 1.889294 0.836447 -0.043520
v -2.523287 0.837927 -0.043520
v -1.341368 0.837529 -0.043520
v -0.264481 0.837154 -0.043520
v 2.528889 0.836233 -0.043520
v -0.802924 0.837374 -0.043520
v 2.427737 0.836223 -0.043520
v 0.273963 0.836996 -0.043520
v 1.350850 0.836660 -0.043520
v -2.418255 0.837912 -0.043520
v 0.543143 0.836905 -0.043520
v -0.533735 0.837264 -0.043520
v 2.528889 0.836233 0.056455
v -2.523287 0.837927 0.056455
v -1.341368 0.837927 0.056455
v 1.889294 0.837926 0.056455
v -0.533703 0.837927 0.056455
v -1.879812 0.837927 0.056455
v 1.350850 0.837926 0.056455
v 0.543185 0.837926 0.056455
v 0.812406 0.837926 0.056455
v -2.418255 0.837927 0.056455
v 2.427737 0.837926 0.056455
v 0.273963 0.837926 0.056455
v -0.264481 0.837927 0.056455
v -0.802925 0.837927 0.056455
v -0.264481 0.837154 -0.043520
v 0.273963 0.836996 -0.043520
v 0.543143 0.836905 -0.043520
v -0.533735 0.837264 -0.043520
v -0.533703 0.837927 0.056455
v 0.543185 0.837926 0.056455
v 0.273963 0.837926 0.056455
v -0.264481 0.837927 0.056455
v 1.083362 -1.170841 0.095338
v 1.083362 -1.170841 -0.080393
v 1.083362 -0.287439 -0.080393
v 1.083362 -1.022818 -0.080393
v 1.083362 -0.287439 0.095338
v 1.083362 -1.022818 0.095338
v 1.083362 0.839440 -0.080393
v 1.083362 0.839440 0.095338
v -1.070360 -1.170841 0.095338
v -1.070360 -1.170841 -0.080393
v -1.070360 -0.287439 -0.080393
v -1.070360 -1.022818 -0.080393
v -1.070360 -0.287439 0.095338
v -1.070360 -1.022818 0.095338
v -1.070360 0.839440 -0.080393
v -1.070360 0.839440 0.095338
v 1.028878 -1.022818 -0.080393
v 1.028878 -1.170841 -0.080393
v 1.028878 -1.170841 0.095338
v 1.028878 -1.022818 0.095338
v 1.028878 0.839440 -0.080393
v 1.028878 -0.287334 -0.080393
v 1.028878 0.839440 0.095338
v 1.028878 -0.287334 0.095338
v 1.028878 0.772688 0.095338
v -1.025627 0.839440 -0.080393
v 1.028878 0.772688 -0.080393
v -1.025627 0.839440 0.095338
v -1.025627 -1.022818 -0.080393
v -1.025627 -1.170841 -0.080393
v -1.025627 -1.170841 0.095338
v -1.025627 -1.022818 0.095338
v -1.025627 -0.287439 -0.080393
v -1.025627 -0.287439 0.095338
v -1.026802 -1.170841 -0.080393
v 1.081628 2.137417 -0.043520
v 1.081628 -1.163844 0.056455
v 1.081628 -1.163844 -0.043520
v 1.081628 2.137417 0.056455
v 1.081628 -1.015821 0.056455
v 1.081628 -0.280442 0.056455
v 1.081628 0.836737 -0.043520
v 1.081628 0.837926 0.056455
v -1.072146 2.137417 -0.043520
v -1.072146 -1.163844 0.056455
v -1.072146 -1.163844 -0.043520
v -1.072146 2.137417 0.056455
v -1.072146 -1.015821 0.056455
v -1.072146 -0.280442 0.056455
v -1.072146 0.837452 -0.043520
v -1.072146 0.837927 0.056455
v 1.081628 -1.015821 -0.043520
v 1.081628 -0.280442 -0.043520
v 1.081628 -1.015821 0.016250
v 1.081628 -0.280442 0.016250
v -1.072146 -1.015821 -0.043520
v -1.072146 -0.280442 -0.043520
v -1.072146 -1.015821 0.016250
v -1.072146 -0.280442 0.016250
v -1.025627 0.772620 -0.080393
v -1.025627 0.772620 0.095338
vn -1.0000 -0.0000 -0.0000
vn -0.0000 -0.0000 -1.0000
vn 1.0000 -0.0000 -0.0000
vn -0.0000 -0.0000 1.0000
vn -0.0000 -1.0000 -0.0000
vn -0.0000 1.0000 -0.0000
vn -0.0002 -1.0000 0.0098
vn -0.0001 -1.0000 0.0085
vn -0.0002 -1.0000 0.0072
vt 0.541667 0.000000
vt 0.580212 0.000000
vt 0.580212 0.250000
vt 0.541667 0.250000
vt 0.541667 0.469600
vt 0.542235 0.468350
vt 0.580161 0.468350
vt 0.580153 0.494995
vt 0.542236 0.494995
vt 0.541667 0.493745
vt 0.541667 0.500000
vt 0.580154 0.500000
vt 0.580154 0.750000
vt 0.541667 0.750000
vt 0.541667 0.994803
vt 0.580212 0.994803
vt 0.580212 1.000000
vt 0.541667 1.000000
vt 0.369995 0.500000
vt 0.375000 0.500000
vt 0.375000 0.750000
vt 0.369995 0.750000
vt 0.869803 0.500000
vt 0.875000 0.500000
vt 0.875000 0.750000
vt 0.869803 0.750000
vt 0.375000 0.994803
vt 0.458333 0.994803
vt 0.458333 1.000000
vt 0.375000 1.000000
vt 0.458333 0.500000
vt 0.458333 0.750000
vt 0.541667 0.283091
vt 0.541667 0.307236
vt 0.375000 0.468350
vt 0.449041 0.468351
vt 0.458333 0.469601
vt 0.458333 0.493745
vt 0.449041 0.494995
vt 0.375000 0.494995
vt 0.375000 0.000000
vt 0.458333 0.000000
vt 0.458333 0.250000
vt 0.375000 0.250000
vt 0.541667 0.496245
vt 0.542235 0.494995
vt 0.449041 0.494995
vt 0.458333 0.496245
vt 0.541667 0.755005
vt 0.458333 0.755005
vt 0.375000 0.755005
vt 0.625000 0.500000
vt 0.630005 0.500000
vt 0.630005 0.750000
vt 0.625000 0.750000
vt 0.343351 0.500000
vt 0.343351 0.750000
vt 0.580212 0.755005
vt 0.541667 0.253947
vt 0.458333 0.253947
vt 0.541667 0.256447
vt 0.542235 0.255197
vt 0.580212 0.255197
vt 0.580204 0.281841
vt 0.542236 0.281841
vt 0.541667 0.280591
vt 0.125000 0.500000
vt 0.130197 0.500000
vt 0.130197 0.750000
vt 0.125000 0.750000
vt 0.449041 0.255197
vt 0.375000 0.255197
vt 0.458333 0.968159
vt 0.541667 0.968158
vt 0.375000 0.968159
vt 0.843158 0.500000
vt 0.843158 0.750000
vt 0.580212 0.968158
vt 0.580212 0.781649
vt 0.541667 0.781649
vt 0.580212 0.808294
vt 0.541667 0.808294
vt 0.541667 0.928192
vt 0.580212 0.928192
vt 0.580212 0.941514
vt 0.541667 0.941514
vt 0.656649 0.500000
vt 0.656650 0.750000
vt 0.683294 0.500000
vt 0.683294 0.750000
vt 0.696616 0.500000
vt 0.709938 0.500000
vt 0.709938 0.750000
vt 0.696616 0.750000
vt 0.723260 0.500000
vt 0.736582 0.500000
vt 0.736582 0.750000
vt 0.723260 0.750000
vt 0.763226 0.500000
vt 0.763226 0.750000
vt 0.776548 0.500000
vt 0.789870 0.500000
vt 0.789870 0.750000
vt 0.776548 0.750000
vt 0.803192 0.500000
vt 0.816514 0.500000
vt 0.816514 0.750000
vt 0.803192 0.750000
vt 0.458333 0.781650
vt 0.375000 0.781649
vt 0.458333 0.808294
vt 0.375000 0.808294
vt 0.375000 0.928192
vt 0.458333 0.928192
vt 0.458333 0.941514
vt 0.375000 0.941514
vt 0.458333 0.309736
vt 0.458333 0.307236
vt 0.541667 0.309736
vt 0.542235 0.308486
vt 0.580198 0.308486
vt 0.580196 0.321808
vt 0.541667 0.321808
vt 0.541667 0.442956
vt 0.542235 0.441706
vt 0.580168 0.441706
vt 0.580161 0.468350
vt 0.542236 0.468350
vt 0.541667 0.467101
vt 0.156842 0.500000
vt 0.156842 0.750000
vt 0.183486 0.500000
vt 0.183486 0.750000
vt 0.303384 0.500000
vt 0.316706 0.500000
vt 0.316706 0.750000
vt 0.303384 0.750000
vt 0.580212 0.255197
vt 0.542236 0.255197
vt 0.458333 0.283091
vt 0.541667 0.440456
vt 0.542235 0.281841
vt 0.580204 0.281841
vt 0.580198 0.308486
vt 0.542236 0.308486
vt 0.449041 0.255197
vt 0.458333 0.256447
vt 0.458333 0.280591
vt 0.449041 0.281842
vt 0.375000 0.281841
vt 0.449041 0.281841
vt 0.449041 0.308486
vt 0.375000 0.308486
vt 0.449041 0.308486
vt 0.458333 0.321808
vt 0.375000 0.321808
vt 0.375000 0.441706
vt 0.449041 0.441706
vt 0.458333 0.442956
vt 0.458333 0.467101
vt 0.449041 0.468351
vt 0.458333 0.496245
vt 0.541667 0.496245
vt 0.458333 0.256447
vt 0.541667 0.253947
vt 0.458333 0.283091
vt 0.458333 0.440456
vt 0.458333 0.442956
vt 0.541667 0.307236
vt 0.542236 0.441706
vt 0.458333 0.428384
vt 0.541667 0.428384
vt 0.541667 0.440456
vt 0.625000 0.308486
vt 0.625000 0.321808
vt 0.580185 0.361774
vt 0.580189 0.348450
vt 0.625000 0.348452
vt 0.625000 0.361774
vt 0.580180 0.388418
vt 0.625000 0.388418
vt 0.625000 0.250000
vt 0.625000 0.255197
vt 0.625000 0.281841
vt 0.580174 0.415062
vt 0.580177 0.401738
vt 0.625000 0.401740
vt 0.625000 0.415062
vt 0.580171 0.428384
vt 0.580174 0.415062
vt 0.625000 0.428384
vt 0.625000 0.468350
vt 0.625000 0.494995
vt 0.625000 0.441706
vt 0.580193 0.335130
vt 0.625000 0.335130
vt 0.580180 0.388418
vt 0.625000 0.000000
vt 0.580212 0.861582
vt 0.580212 0.848260
vt 0.625000 0.848260
vt 0.625000 0.861582
vt 0.580212 0.834938
vt 0.625000 0.834938
vt 0.580212 0.914870
vt 0.580212 0.901548
vt 0.625000 0.901548
vt 0.625000 0.914870
vt 0.625000 0.928192
vt 0.625000 0.941514
vt 0.625000 0.968158
vt 0.580212 0.888226
vt 0.625000 0.888226
vt 0.625000 0.994803
vt 0.625000 0.755005
vt 0.625000 0.781650
vt 0.625000 1.000000
vt 0.625000 0.808294
vt 0.580212 0.821616
vt 0.625000 0.821616
vt 0.580168 0.441706
vt 0.541667 0.821616
vt 0.458333 0.821616
vt 0.375000 0.821616
vt 0.580193 0.335130
vt 0.196808 0.500000
vt 0.196808 0.750000
vt 0.375000 0.428384
vt 0.449041 0.441706
s 0
usemtl Material.001
f 10/1/1 152/2/1 140/3/1 11/4/1
f 94/5/2 96/6/2 139/7/2 145/8/2 66/9/2 65/10/2
f 13/11/3 143/12/3 151/13/3 15/14/3
f 26/15/4 160/16/4 152/17/4 10/18/4
f 17/19/5 7/20/5 5/21/5 19/22/5
f 27/23/6 4/24/6 2/25/6 24/26/6
f 28/27/4 25/28/4 9/29/4 1/30/4
f 25/28/4 26/15/4 10/18/4 9/29/4
f 7/20/3 14/31/3 16/32/3 5/21/3
f 14/31/3 13/11/3 15/14/3 16/32/3
f 85/33/5 89/34/5 108/34/5 105/33/5
f 41/35/2 84/36/2 83/37/2 61/38/2 63/39/2 17/40/2
f 1/41/1 9/42/1 12/43/1 3/44/1
f 9/42/1 10/1/1 11/4/1 12/43/1
f 64/45/2 66/46/2 145/8/2 143/12/2 13/11/2
f 17/40/2 63/47/2 62/48/2 14/31/2 7/20/2
f 16/32/4 15/14/4 22/49/4 21/50/4
f 5/21/4 16/32/4 21/50/4 19/51/4
f 8/52/6 18/53/6 20/54/6 6/55/6
f 41/56/5 17/19/5 19/22/5 40/57/5
f 15/14/4 151/13/4 161/58/4 22/49/4
f 12/43/2 11/4/2 71/59/2 67/60/2
f 70/61/2 72/62/2 148/63/2 138/64/2 87/65/2 86/66/2
f 3/67/5 23/68/5 28/69/5 1/70/5
f 3/44/2 12/43/2 67/60/2 69/71/2 23/72/2
f 56/73/4 60/74/4 26/15/4 25/28/4
f 37/75/4 56/73/4 25/28/4 28/27/4
f 29/76/6 27/23/6 24/26/6 52/77/6
f 60/74/4 156/78/4 160/16/4 26/15/4
f 22/49/4 161/58/4 154/79/4 57/80/4
f 57/80/4 154/79/4 157/81/4 58/82/4
f 221/83/4 223/84/4 153/85/4 59/86/4
f 59/86/4 153/85/4 156/78/4 60/74/4
f 18/53/6 36/87/6 45/88/6 20/54/6
f 36/87/6 35/89/6 46/90/6 45/88/6
f 208/91/6 34/92/6 47/93/6 211/94/6
f 133/95/6 33/96/6 48/97/6 134/98/6
f 33/96/6 32/99/6 49/100/6 48/97/6
f 135/101/6 31/102/6 50/103/6 136/104/6
f 216/105/6 30/106/6 51/107/6 219/108/6
f 30/106/6 29/76/6 52/77/6 51/107/6
f 19/51/4 21/50/4 53/109/4 40/110/4
f 40/110/4 53/109/4 54/111/4 39/112/4
f 217/113/4 220/114/4 55/115/4 38/116/4
f 38/116/4 55/115/4 56/73/4 37/75/4
f 21/50/4 22/49/4 57/80/4 53/109/4
f 53/109/4 57/80/4 58/82/4 54/111/4
f 220/114/4 221/83/4 59/86/4 55/115/4
f 55/115/4 59/86/4 60/74/4 56/73/4
f 77/117/6 76/118/6 99/118/6 100/117/6
f 88/119/2 90/120/2 141/121/2 222/122/2 229/123/2
f 91/124/2 93/125/2 147/126/2 139/127/2 96/128/2 95/129/2
f 23/68/5 44/130/5 37/131/5 28/69/5
f 44/130/5 43/132/5 38/133/5 37/131/5
f 210/134/5 42/135/5 39/136/5 209/137/5
f 42/135/5 41/56/5 40/57/5 39/136/5
f 11/4/2 140/3/2 148/138/2 72/139/2 71/59/2
f 61/38/6 83/37/6 104/37/6 113/38/6
f 76/118/6 74/140/6 98/140/6 99/118/6
f 92/141/5 91/124/5 109/124/5 110/141/5
f 85/33/2 87/142/2 138/143/2 141/144/2 90/145/2 89/34/2
f 23/72/2 69/146/2 68/147/2 73/148/2 75/149/2 44/150/2
f 44/150/2 75/151/2 74/140/2 76/118/2 78/152/2 43/153/2
f 43/153/2 78/154/2 77/117/2 228/155/2 218/156/2
f 42/157/2 81/158/2 80/159/2 82/160/2 84/161/2 41/35/2
f 61/38/2 62/162/2 63/47/2
f 64/163/2 65/10/2 66/9/2
f 67/60/2 68/164/2 69/146/2
f 70/61/2 71/165/2 72/139/2
f 73/148/2 74/166/2 75/151/2
f 76/118/2 77/117/2 78/154/2
f 79/167/2 80/168/2 81/158/2
f 82/160/2 83/37/2 84/36/2
f 85/33/2 86/66/2 87/65/2
f 88/119/2 89/169/2 90/145/2
f 91/124/2 92/141/2 93/170/2
f 94/5/2 95/129/2 96/128/2
f 64/163/2 62/48/2 61/38/2 65/10/2
f 70/61/2 68/147/2 67/60/2 71/59/2
f 89/169/5 88/119/5 107/119/5 108/169/5
f 74/166/6 73/148/6 97/148/6 98/166/6
f 70/61/5 86/66/5 106/66/5 115/61/5
f 73/148/6 68/147/6 116/147/6 97/148/6
f 62/48/2 64/163/2 13/11/2 14/31/2
f 104/37/2 111/5/2 114/10/2 113/38/2
f 116/147/2 115/61/2 106/66/2 97/148/2
f 98/140/2 105/33/2 108/34/2 99/118/2
f 226/171/2 227/172/2 110/173/2 101/167/2
f 102/159/2 109/124/2 112/129/2 103/160/2
f 109/124/3 102/159/3 122/159/3 129/124/3
f 112/129/6 111/5/6 131/5/6 132/129/6
f 100/117/5 99/118/5 119/118/5 120/117/5
f 110/141/6 109/124/6 129/124/6 130/141/6
f 80/168/6 79/167/6 101/167/6 102/168/6
f 95/129/5 94/5/5 111/5/5 112/129/5
f 94/5/5 65/10/5 114/10/5 111/5/5
f 225/172/5 92/173/5 110/173/5 227/172/5
f 228/155/6 77/117/6 100/117/6 230/155/6
f 82/160/6 80/159/6 102/159/6 103/160/6
f 83/37/6 82/160/6 103/160/6 104/37/6
f 65/10/1 61/38/1 113/38/1 114/10/1
f 91/124/5 95/129/5 112/129/5 109/124/5
f 68/147/3 70/61/3 115/61/3 116/147/3
f 86/66/5 85/33/5 105/33/5 106/66/5
f 125/33/2 118/140/2 117/148/2 126/66/2
f 127/119/2 120/117/2 119/118/2 128/34/2
f 129/124/2 122/159/2 121/167/2 130/173/2
f 131/5/2 124/37/2 123/160/2 132/129/2
f 101/167/1 110/173/1 130/173/1 121/167/1
f 105/33/3 98/140/3 118/140/3 125/33/3
f 111/5/3 104/37/3 124/37/3 131/5/3
f 97/148/1 106/66/1 126/66/1 117/148/1
f 102/168/5 101/167/5 121/167/5 122/168/5
f 103/160/1 112/129/1 132/129/1 123/160/1
f 107/119/3 100/117/3 120/117/3 127/119/3
f 104/37/5 103/160/5 123/160/5 124/37/5
f 99/118/1 108/34/1 128/34/1 119/118/1
f 106/66/6 105/33/6 125/33/6 126/66/6
f 108/169/6 107/119/6 127/119/6 128/169/6
f 98/166/5 97/148/5 117/148/5 118/166/5
f 34/92/6 133/95/6 134/98/6 47/93/6
f 32/99/6 135/101/6 136/104/6 49/100/6
f 222/122/2 141/121/2 30/174/2 216/175/2
f 142/176/2 150/177/2 135/178/2 32/179/2
f 146/180/2 142/176/2 32/179/2 33/181/2
f 148/138/2 140/3/2 4/182/2 27/183/2
f 141/144/2 138/143/2 29/184/2 30/174/2
f 137/185/2 149/186/2 133/187/2 34/188/2
f 214/189/2 137/190/2 34/188/2 208/191/2
f 145/8/2 139/7/2 36/192/2 18/193/2
f 138/64/2 148/63/2 27/183/2 29/184/2
f 139/127/2 147/126/2 35/194/2 36/192/2
f 143/12/2 145/8/2 18/193/2 8/52/2
f 135/178/2 150/177/2 144/195/2 31/196/2
f 133/187/2 149/186/2 146/197/2 33/181/2
f 151/13/3 143/12/3 8/52/3 6/55/3
f 140/3/1 152/2/1 2/198/1 4/182/1
f 162/199/4 158/200/4 134/201/4 48/202/4
f 158/200/4 159/203/4 47/204/4 134/201/4
f 164/205/4 155/206/4 136/207/4 50/208/4
f 223/84/4 164/205/4 50/208/4 219/209/4
f 156/78/4 153/85/4 51/210/4 52/211/4
f 163/212/4 162/199/4 48/202/4 49/213/4
f 160/16/4 156/78/4 52/211/4 24/214/4
f 161/58/4 151/13/4 6/55/4 20/215/4
f 155/206/4 163/212/4 49/213/4 136/207/4
f 154/79/4 161/58/4 20/215/4 45/216/4
f 152/17/4 160/16/4 24/214/4 2/217/4
f 157/81/4 154/79/4 45/216/4 46/218/4
f 215/219/4 157/81/4 46/218/4 211/220/4
f 167/186/7 170/200/7 171/199/7 166/197/7
f 166/197/8 171/199/8 172/212/8 165/176/8
f 165/176/9 172/212/9 169/206/9 168/177/9
f 175/11/1 177/14/1 180/13/1 179/12/1
f 174/20/1 173/21/1 178/32/1 176/31/1
f 176/31/1 178/32/1 177/14/1 175/11/1
f 183/11/1 185/14/1 188/13/1 187/12/1
f 182/20/1 181/21/1 186/32/1 184/31/1
f 184/31/1 186/32/1 185/14/1 183/11/1
f 196/14/3 194/11/3 199/11/3 197/14/3
f 190/20/3 189/31/3 192/32/3 191/21/3
f 189/31/3 194/11/3 196/14/3 192/32/3
f 174/20/4 176/31/4 189/31/4 190/20/4
f 179/12/5 180/13/5 195/13/5 193/12/5
f 180/13/2 177/14/2 196/14/2 195/13/2
f 175/11/4 179/12/4 193/12/4 194/11/4
f 173/21/6 174/20/6 190/20/6 191/21/6
f 177/14/2 178/32/2 192/32/2 196/14/2
f 176/31/4 175/11/4 194/11/4 189/31/4
f 178/32/2 173/21/2 191/21/2 192/32/2
f 232/11/3 198/12/3 200/13/3 233/14/3
f 195/13/4 196/14/4 197/14/4
f 199/11/4 193/12/4 198/12/4 232/11/4
f 194/11/2 193/12/2 199/11/2
f 200/13/6 206/14/6 233/14/6
f 202/20/3 201/31/3 204/32/3 203/21/3
f 201/31/3 205/11/3 206/14/3 204/32/3
f 181/21/5 182/20/5 202/20/5 203/21/5
f 185/14/4 186/32/4 204/32/4 206/14/4
f 184/31/2 183/11/2 205/11/2 201/31/2
f 186/32/4 181/21/4 203/21/4 204/32/4
f 182/20/2 184/31/2 201/31/2 202/20/2
f 187/12/6 188/13/6 200/13/6 198/12/6
f 188/13/4 185/14/4 206/14/4 200/13/4
f 183/11/2 187/12/2 198/12/2 205/11/2
f 159/203/4 215/219/4 211/220/4 47/204/4
f 147/221/2 214/189/2 208/191/2 35/194/2
f 54/111/4 58/82/4 213/222/4 212/223/4
f 39/112/4 54/111/4 212/223/4 209/224/4
f 35/89/6 208/91/6 211/94/6 46/90/6
f 58/82/4 157/81/4 215/219/4 213/222/4
f 153/85/4 223/84/4 219/209/4 51/210/4
f 144/225/2 222/122/2 216/175/2 31/196/2
f 43/132/5 218/226/5 217/227/5 38/133/5
f 31/102/6 216/105/6 219/108/6 50/103/6
f 79/167/6 224/171/6 226/171/6 101/167/6
f 88/119/5 229/123/5 231/123/5 107/119/5
f 100/117/2 107/119/2 231/123/2 230/155/2
f 210/228/2 224/171/2 79/167/2 81/229/2 42/157/2
f 225/172/2 214/189/2 147/221/2 93/170/2 92/173/2
f 195/13/2 197/14/2 233/14/2 200/13/2
f 197/14/6 199/11/6 232/11/6 233/14/6
f 193/12/5 195/13/5 200/13/5 198/12/5
f 205/11/2 198/12/2 232/11/2
f 206/14/3 205/11/3 232/11/3 233/14/3
